<svg fill="#7A7A7A" xmlns="http://www.w3.org/2000/svg" xmlns:xlink="http://www.w3.org/1999/xlink" version="1.1" x="0px" y="0px" viewBox="0 0 96.38 96.38" enable-background="new 0 0 96.38 96.38" xml:space="preserve"><path d="M76.537,64.347h-4.819V48.189c0-3.306-2.475-6.04-5.668-6.458V25.513c0-3.596-2.925-6.521-6.521-6.521H36.852  c-3.595,0-6.521,2.925-6.521,6.521v16.218c-3.193,0.419-5.668,3.152-5.668,6.458v16.157h-4.819c-0.47,0-0.851,0.381-0.851,0.851  c0,3.596,2.925,6.521,6.52,6.521h18.303c-1.314,1.193-2.146,2.909-2.146,4.819c0,0.47,0.381,0.851,0.851,0.851h11.339  c0.47,0,0.851-0.381,0.851-0.851c0-1.91-0.831-3.626-2.146-4.819h18.303c3.596,0,6.521-2.925,6.521-6.521  C77.388,64.728,77.007,64.347,76.537,64.347z M52.934,75.687h-9.487c0.403-2.252,2.377-3.967,4.744-3.967  S52.531,73.435,52.934,75.687z M32.032,41.669V26.743c1.593,1.207,3.403,1.824,5.226,1.824c1.882,0,3.773-0.647,5.438-1.946  c3.344,2.568,7.986,2.569,11.333,0c3.149,2.457,7.099,2.56,10.319,0.325v14.724H32.032z M36.852,20.693h22.678  c2.431,0,4.427,1.816,4.753,4.159c-0.017,0.012-0.036,0.016-0.051,0.03c-2.924,2.633-6.705,2.634-9.631,0  c-0.325-0.292-0.815-0.29-1.139,0c-2.906,2.619-7.291,2.619-10.198,0c-0.323-0.292-0.814-0.292-1.139,0  c-3.004,2.705-7.094,2.603-9.946-0.25c-0.016-0.016-0.037-0.021-0.054-0.036C32.555,22.375,34.508,20.693,36.852,20.693z   M31.179,43.371c0.001,0,0.002,0,0.003,0c0.002,0,0.003-0.001,0.005-0.001h34.008c0.002,0,0.003,0.001,0.005,0.001  c0.001,0,0.002,0,0.003,0c2.43,0.001,4.423,1.817,4.748,4.16c-0.015,0.012-0.033,0.015-0.047,0.028c-2.88,2.595-6.753,2.593-9.635,0  c-0.324-0.291-0.814-0.292-1.139,0c-2.907,2.616-7.29,2.616-10.199,0c-0.323-0.291-0.815-0.292-1.138,0  c-2.906,2.619-7.29,2.619-10.197,0c-0.323-0.292-0.814-0.292-1.139,0c-3.004,2.706-7.095,2.603-9.946-0.25  c-0.016-0.016-0.037-0.021-0.054-0.036C26.886,45.054,28.837,43.372,31.179,43.371z M26.364,49.42  c1.593,1.207,3.404,1.824,5.226,1.824c1.882,0,3.773-0.646,5.439-1.946c3.347,2.572,7.99,2.57,11.334-0.002  c3.345,2.569,7.99,2.569,11.334,0.002c3.149,2.456,7.098,2.56,10.319,0.327v14.722H26.364V49.42z M70.867,70.017H25.512  c-2.367,0-4.34-1.716-4.743-3.969h54.842C75.209,68.301,73.234,70.017,70.867,70.017z"></path></svg>