<svg fill="#7A7A7A" xmlns="http://www.w3.org/2000/svg" data-name="Layer 1" viewBox="0 0 100 100" x="0px" y="0px"><title>Artboard 3</title><path d="M6.81,51.7a22.73,22.73,0,0,0-2.54,11V86.14a6.91,6.91,0,0,0,6.9,6.9H17.5a6.91,6.91,0,0,0,6.9-6.9V84.45H75.6v1.68A6.91,6.91,0,0,0,82.5,93h6.34a6.91,6.91,0,0,0,6.9-6.9V62.73a22.79,22.79,0,0,0-2.54-11A7,7,0,0,0,99,44.92c0-1.41,0-2.56,0-3.6a6.89,6.89,0,0,0-6.7-6.72c-.62,0-1.25,0-1.91,0a9.33,9.33,0,0,0-4.58,1.31c-1.7-4.09-4.41-10.26-6.35-13.06-3.7-5.32-9-6.78-12.63-7.42-1.06-.19-2.16-.35-3.33-.48V11.48A4.53,4.53,0,0,0,58.94,7H41.06a4.53,4.53,0,0,0-4.52,4.52v3.43c-1.17.14-2.27.3-3.34.48-3.65.64-8.94,2.1-12.63,7.42-1.95,2.8-4.66,9-6.35,13.06A9.39,9.39,0,0,0,9.6,34.57c-.63,0-1.25,0-1.87,0A6.89,6.89,0,0,0,1,41.32c0,1,0,2.19,0,3.6A7,7,0,0,0,6.81,51.7ZM5,41.47A2.86,2.86,0,0,1,7.87,38.6l1.72,0a6.2,6.2,0,0,1,4.14,1.91,2,2,0,0,0,3.22-.71c2.79-6.93,5.43-12.54,6.91-14.66,2.81-4,6.84-5.2,10-5.76,1.49-.26,3.07-.47,4.83-.63a2,2,0,0,0,1.81-2V11.48a.52.52,0,0,1,.52-.52H58.94a.52.52,0,0,1,.52.52v5.23a2,2,0,0,0,1.81,2c1.76.17,3.34.37,4.83.63,3.2.56,7.23,1.72,10,5.76,1.47,2.12,4.12,7.74,6.91,14.66a2,2,0,0,0,3.22.71,6.19,6.19,0,0,1,4.11-1.91l1.75,0A2.86,2.86,0,0,1,95,41.47h0c0,1,0,2,0,3.36a3,3,0,0,1-3,3l-2.07,0h-.29A2,2,0,0,0,88,51c.23.3.44.61.65.91a18.54,18.54,0,0,1,3,10.76V86.14a2.9,2.9,0,0,1-2.9,2.9H82.5a2.9,2.9,0,0,1-2.9-2.9V82.45a2,2,0,0,0-2-2H22.4a2,2,0,0,0-2,2v3.68A2.9,2.9,0,0,1,17.5,89H11.15a2.9,2.9,0,0,1-2.9-2.9V62.66a18.5,18.5,0,0,1,3-10.72q.31-.46.65-.92a2,2,0,0,0-1.6-3.2h-.28L8,47.81a3,3,0,0,1-3-3C5,43.5,5,42.43,5,41.47Zm17.6,25.71h9a5.81,5.81,0,0,0,1.47-11.44l-9-2.35A5.81,5.81,0,0,0,16.81,59v2.35A5.82,5.82,0,0,0,22.63,67.18ZM20.81,59a1.81,1.81,0,0,1,2.27-1.75l9,2.35a1.81,1.81,0,0,1-.46,3.57h-9a1.82,1.82,0,0,1-1.81-1.81ZM24,45.92H76a2,2,0,0,0,1.86-2.74c-1.69-4.27-5-12.15-6.7-14.58-1.22-1.75-3-2.68-6.06-3.22A88,88,0,0,0,50,24.44a88.09,88.09,0,0,0-15.06.94c-3.09.54-4.84,1.47-6.06,3.23-1.69,2.43-5,10.31-6.7,14.58A2,2,0,0,0,24,45.92Zm8.13-15c.3-.44.76-1.1,3.47-1.57A84.75,84.75,0,0,1,50,28.44a84.59,84.59,0,0,1,14.37.89c2.7.47,3.16,1.13,3.46,1.56a85.33,85.33,0,0,1,5.16,11H27A85.8,85.8,0,0,1,32.16,30.89ZM75.9,53.39l-9,2.35a5.81,5.81,0,0,0,1.47,11.44h9a5.82,5.82,0,0,0,5.81-5.81V59a5.81,5.81,0,0,0-7.29-5.62Zm2.58,4.19A1.8,1.8,0,0,1,79.18,59v2.35a1.82,1.82,0,0,1-1.81,1.81h-9a1.81,1.81,0,0,1-.46-3.57l9-2.35a1.82,1.82,0,0,1,.46-.06A1.8,1.8,0,0,1,78.48,57.58Z"></path></svg>