<svg fill="#7A7A7A" xmlns="http://www.w3.org/2000/svg" xmlns:xlink="http://www.w3.org/1999/xlink" version="1.1" x="0px" y="0px" viewBox="0 0 100 100" style="enable-background:new 0 0 100 100;" xml:space="preserve"><g><path d="M20.3,58.2c0,16.4,13.3,29.7,29.7,29.7s29.7-13.3,29.7-29.7c0-13.2-8.6-24.3-20.5-28.2l6.8-8.2c0.6-0.7,0.6-1.7,0.1-2.4   L61.9,13c-0.4-0.6-1-0.9-1.7-0.9H39.8c-0.7,0-1.3,0.3-1.7,0.9l-4.2,6.3c-0.5,0.7-0.4,1.7,0.1,2.4l6.8,8.2   C28.9,33.8,20.3,45,20.3,58.2z M38,20.4l2.8-4.2h18.4l2.8,4.2l-7.1,8.5c-1.6-0.3-3.2-0.4-4.9-0.4s-3.3,0.1-4.9,0.4L38,20.4z    M50,32.5c14.2,0,25.7,11.5,25.7,25.7S64.2,83.8,50,83.8c-14.2,0-25.7-11.5-25.7-25.7S35.8,32.5,50,32.5z"></path><path d="M49.3,75.5c9.6,0,17.3-7.8,17.3-17.3c0-9.6-7.8-17.3-17.3-17.3S32,48.6,32,58.2C32,67.7,39.7,75.5,49.3,75.5z M49.3,44.8   c7.4,0,13.3,6,13.3,13.3s-6,13.3-13.3,13.3c-7.4,0-13.3-6-13.3-13.3S41.9,44.8,49.3,44.8z"></path></g></svg>