<svg fill="#7A7A7A" xmlns="http://www.w3.org/2000/svg" xmlns:xlink="http://www.w3.org/1999/xlink" version="1.1" x="0px" y="0px" viewBox="0 0 48 48" style="enable-background:new 0 0 48 48;" xml:space="preserve"><style type="text/css">
	.st0{fill:none;stroke:#7A7A7A;stroke-width:2;stroke-miterlimit:10;}
	.st1{fill:none;stroke:#7A7A7A;stroke-width:2;stroke-linejoin:round;stroke-miterlimit:10;}
	.st2{fill:none;stroke:#7A7A7A;stroke-width:2;stroke-linecap:round;stroke-linejoin:round;stroke-miterlimit:10;}
	.st3{fill:none;stroke:#7A7A7A;stroke-width:2;stroke-linejoin:bevel;stroke-miterlimit:10;}
</style><g><g><line class="st0" x1="35" y1="36.9" x2="35" y2="1"></line><path class="st0" d="M35,2c0,0,0,4.2,4.1,5.6c5.8,2,6.1,7.8,5.9,11"></path><path class="st0" d="M26.4,34.3c-0.8-1.4-2.3-2.4-4-2.4c-2.5,0-4.6,2.5-4.6,5.1c0,2.6,2.8,8,8.6,10c5.8-2.1,8.6-7.4,8.6-10    c0-2.6-2.1-5.1-4.6-5.1C28.7,31.9,27.2,32.9,26.4,34.3z"></path></g><path class="st0" d="M9.8,5.4C8.7,6.1,8.1,7.2,8.1,8.4C7,7.9,5.8,8,4.7,8.7C3,9.8,2.5,12,3.6,13.7   c2.4,3.8,10.3,3.6,10.3,3.6s3.6-6.8,1-10.8C13.8,4.8,11.5,4.3,9.8,5.4z"></path><path class="st0" d="M28,17.6c-0.8-0.3-1.7-0.2-2.4,0.3C25.4,17,24.8,16.4,24,16c-1.4-0.5-2.9,0.2-3.4,1.5   c-1.2,3,2.3,7.4,2.3,7.4s5.4-0.8,6.7-4C30.1,19.6,29.4,18.1,28,17.6z"></path></g></svg>