<svg fill="#7A7A7A" xmlns="http://www.w3.org/2000/svg" xmlns:xlink="http://www.w3.org/1999/xlink" version="1.1" x="0px" y="0px" viewBox="0 0 96 96" style="enable-background:new 0 0 96 96;" xml:space="preserve"><path d="M70.7,38.3c2.1,5.8-3.6,14.1-7,18.9c-2.8,3.9-4.2,9.8-5.4,14.3C54.1,86.1,48.6,96,31.5,96C14.1,96,0,81.9,0,64.5  C0,56.9,2.1,50,8.2,45c4.7-3.8,10.6-5.6,16.3-7.2c4.6-1.3,10.5-2.7,14.3-5.4c4.1-3,12.2-8.7,18.1-7.2l8.8-8.4  c-2.2-4.4-1.4-9.9,2.3-13.5C72.7-1.2,80-1,84.4,3.6c1.5,1.6,2.5,3.5,2.9,5.6c2,0.5,3.9,1.6,5.4,3.2c4.4,4.6,4.3,11.9-0.3,16.3  c-3.8,3.6-9.3,4.2-13.6,1.8L70.7,38.3L70.7,38.3z M68.2,35.1l10.4-10c3,3.6,8,3.6,11,0.7c3-2.9,3.1-7.7,0.2-10.7  c-1.7-1.8-4.1-2.5-6.4-2.2c0.4-2.3-0.3-4.7-2-6.5c-2.9-3-7.7-3.1-10.7-0.2C67.8,9,67.6,14,71,17.2L60.5,27.2c2,2.2,1.7,3.7,2.7,5.5  c0.5,0.3,1.5,0.5,2,0.7C66.4,33.9,67.4,34.5,68.2,35.1L68.2,35.1z M4,64.5C4,79.7,16.3,92,31.5,92c24.8,0,20-24.8,28.9-37.1  c13.8-19.3,2.8-16.5,0-19.3c-2.8-2.8,0-13.8-19.3,0C28.8,44.5,4,39.8,4,64.5L4,64.5z M10.7,66.8c0.5,1,1.8,1.3,2.7,0.7  s1.3-1.8,0.7-2.7c-0.2-0.3-0.3-0.6-0.5-1c-0.5-1.2-0.9-2.7-0.6-3.7c0.2-0.8,0.9-1.7,1.7-2.4c0.5-0.5,1.1-0.9,1.5-1.1  c1-0.6,1.3-1.8,0.7-2.7c-0.5-1-1.8-1.3-2.7-0.7c-2.1,1.2-4.5,3.5-5.1,5.9C8.6,61.5,9.4,64.6,10.7,66.8z"></path></svg>