<svg fill="#7A7A7A" xmlns="http://www.w3.org/2000/svg" xmlns:xlink="http://www.w3.org/1999/xlink" version="1.1" x="0px" y="0px" viewBox="0 0 48 48" enable-background="new 0 0 48 48" xml:space="preserve"><g><path d="M46,41.5l-4,0.7l-2-11.3c5.4-1.5,8.9-7.6,7.7-14c-0.5-2.8-2.5-9.3-4.6-13.6c-0.2-0.4-0.6-0.6-1.1-0.5L26.5,5.5   c-0.4,0.1-0.8,0.4-0.8,0.9c-0.2,1.9-0.3,4.2-0.3,6.4c0,0,0,0,0,0s0,0,0,0c0,3.2,0.3,6.3,0.6,7.9c1.1,6.1,5.8,10.6,11.3,10.6h0   c0.2,0,0.5,0,0.7,0l2,11.3l-4,0.7c-0.5,0.1-0.9,0.6-0.8,1.2c0.1,0.5,0.5,0.8,1,0.8c0.1,0,0.1,0,0.2,0l10-1.8   c0.5-0.1,0.9-0.6,0.8-1.2C47.1,41.8,46.6,41.4,46,41.5z M41.7,4.9c1,2.1,1.9,4.6,2.7,6.9H27.4c0-1.5,0.1-3,0.2-4.4L41.7,4.9z    M37.4,29.3c-4.4,0-8.5-3.8-9.4-8.9c-0.2-1.4-0.5-3.9-0.5-6.6H45c0.4,1.4,0.7,2.6,0.9,3.5c1,5.7-2.2,11.1-7.1,11.9   C38.3,29.2,37.8,29.3,37.4,29.3C37.4,29.3,37.4,29.3,37.4,29.3z"></path><path d="M21.5,5.5L5.9,2.8C5.5,2.7,5,2.9,4.8,3.3C2.7,7.6,0.7,14.1,0.2,16.9c-0.6,3.3,0,6.5,1.6,9.2c1.5,2.4,3.6,4.1,6.1,4.8   L6,42.2l-4-0.7c-0.5-0.1-1.1,0.3-1.2,0.8c-0.1,0.5,0.3,1.1,0.8,1.2l5,0.9c0,0,0,0,0,0s0,0,0,0l5,0.9c0.1,0,0.1,0,0.2,0   c0.5,0,0.9-0.3,1-0.8c0.1-0.5-0.3-1.1-0.8-1.2l-4-0.7l2-11.3c0.2,0,0.5,0,0.7,0c5.5,0,10.3-4.4,11.3-10.6c0.5-2.8,0.8-9.6,0.3-14.3   C22.2,6,21.9,5.6,21.5,5.5z M6.3,4.9l14.1,2.5c0.1,1.4,0.2,2.9,0.2,4.4H3.7C4.4,9.5,5.3,6.9,6.3,4.9z M10.6,29.3   c-0.5,0-0.9,0-1.4-0.1c-2.4-0.4-4.4-1.9-5.7-4.1c-1.4-2.3-1.8-5.1-1.4-7.8c0.1-0.8,0.4-2.1,0.9-3.5h17.5c-0.1,2.7-0.3,5.2-0.5,6.6   C19.1,25.5,15.1,29.3,10.6,29.3z"></path></g></svg>