<svg fill="#8C8C8C" xmlns="http://www.w3.org/2000/svg" xmlns:xlink="http://www.w3.org/1999/xlink" version="1.1" x="0px" y="0px" viewBox="0 0 100 100" enable-background="new 0 0 100 100" xml:space="preserve"><path d="M95.201,86.886c-3.345-6.635-6.689-13.278-10.035-19.922c0-0.007-0.007-0.007-0.007-0.015c0-0.009-0.008-0.009-0.008-0.017  c0-0.007-0.009-0.007-0.009-0.015c0-0.009-0.008-0.009-0.008-0.017l-0.007-0.008C74.092,44.987,63.057,23.08,52.021,1.182  c-0.462-0.931-1.25-1.243-2.024-1.172c-0.774-0.07-1.556,0.242-2.024,1.172C36.93,23.104,25.878,45.034,14.835,66.964  C11.491,73.607,8.146,80.251,4.8,86.886c-0.539,1.07-0.367,2.634,0.836,3.212c1.055,0.501,2.11,0.977,3.172,1.445  c0.297,0.133,0.594,0.258,0.892,0.384c0.82,0.36,1.648,0.703,2.485,1.039c0.266,0.11,0.531,0.219,0.796,0.32  c2.228,0.875,4.463,1.673,6.729,2.4c0.157,0.055,0.313,0.101,0.469,0.147c1.048,0.328,2.103,0.648,3.166,0.946  c0.109,0.031,0.21,0.062,0.312,0.094c2.407,0.671,4.838,1.265,7.292,1.773c1.242,0.258,2.493,0.493,3.751,0.703  c0.657,0.11,1.313,0.219,1.97,0.321c0.171,0.022,0.335,0.047,0.507,0.07c0.602,0.095,1.204,0.18,1.813,0.258  c0.008,0,0.008,0,0.016,0c0.093-1.586,0.828-3.041,1.945-4.188c1.978-2.017,5.135-3.088,8.082-2.299  c1.211,0.328,2.587-0.391,2.884-1.634c1.766-7.26,10.152-8.886,14.81-3.196c0.469,0.571,1.595,0.892,2.282,0.603  c3.752-1.579,7.339-0.625,9.395,2.118c0.734,0.978,1.266,2.181,1.548,3.579c0.023,0.125,0.055,0.242,0.077,0.375  c0.031,0.181,0.079,0.353,0.133,0.5c1.478-0.492,2.947-1.016,4.401-1.57c0-0.016,0-0.039-0.009-0.062  c0.009,0.023,0.009,0.039,0.016,0.062c0,0,0.008-0.008,0.016-0.008c1.673-0.634,3.314-1.298,4.939-1.992  c0.094-0.04,0.18-0.087,0.273-0.126c0.719-0.305,1.431-0.617,2.134-0.938c0.813-0.367,1.626-0.743,2.423-1.126  C95.561,89.52,95.741,87.957,95.201,86.886z M69.387,46.05c-3.337,3.47-11.098,1.985-11.441-4.416  c0.219-3.993,3.087-6.064,6.073-6.229C65.808,38.954,67.598,42.502,69.387,46.05z M42.877,21.697c4.744,3.165,3.541,11.81-3.61,12.2  c-0.892,0.046-1.688-0.055-2.392-0.282C38.876,29.646,40.876,25.667,42.877,21.697z M34.897,37.539  c1.384,0.603,2.877,0.962,4.37,1.048c6.408,0.344,11.043-5.456,11.355-11.356c0.234-4.259-2.251-7.722-5.667-9.66  c1.681-3.337,3.361-6.666,5.042-10.003c3.893,7.721,7.776,15.436,11.668,23.157c-4.603,1.103-7.807,5.55-8.339,10.215  c-0.047,0.21-0.086,0.438-0.07,0.695c-0.016,0.25,0.016,0.477,0.07,0.688c0.617,5.948,5.01,10.144,11.091,10.464  c2.767,0.148,5.196-0.866,7.072-2.547c2.782,5.518,5.564,11.028,8.339,16.546c-1.492,0.483-2.993,0.945-4.509,1.359  c-0.422,0.125-0.844,0.242-1.273,0.352c-0.993,0.266-1.985,0.516-2.986,0.75c-0.297,0.07-0.586,0.141-0.875,0.203  c-0.664,0.156-1.329,0.298-1.993,0.431c-0.195,0.046-0.391,0.085-0.594,0.123c-0.711,0.143-1.431,0.283-2.149,0.408  c-0.484,0.085-0.977,0.171-1.478,0.25c-0.266,0.054-0.539,0.094-0.805,0.133c-0.125,0.023-0.242,0.038-0.367,0.054  c-0.477,0.079-0.953,0.149-1.431,0.212c-0.273,0.038-0.547,0.078-0.82,0.108c-0.438,0.062-0.868,0.118-1.306,0.165  c0.196-0.852,0.305-1.728,0.345-2.603c0.336-7.94-6.55-13.896-13.966-14.481c-0.172-0.032-0.359-0.048-0.555-0.032  c-0.227-0.016-0.431,0.008-0.618,0.047C36.617,54.889,30.88,60.79,30.544,68.73c-0.016,0.296-0.016,0.586-0.008,0.875  c-3.493-0.758-6.948-1.704-10.371-2.821C25.082,57.038,29.99,47.285,34.897,37.539z M54.107,71.81  c-0.617,0.047-1.234,0.077-1.853,0.109c-0.75,0.038-1.5,0.07-2.258,0.094c-4.9-0.141-9.746-0.625-14.521-1.438  c-0.133-0.602-0.219-1.218-0.242-1.844c-0.235-5.526,4.649-9.606,9.832-9.824C52.787,59.234,55.804,66.253,54.107,71.81z   M83.041,89.816l-0.008,0.008c-2.751-4.744-8.441-7.174-13.966-5.525c-6.59-6.541-17.515-4.088-20.993,4.291  c-5.4-0.556-10.02,2.297-12.16,6.541c-1.071-0.179-2.142-0.384-3.213-0.609c-0.101-0.016-0.211-0.04-0.32-0.062  c-1.023-0.219-2.04-0.446-3.063-0.696c-0.055-0.016-0.102-0.03-0.157-0.038c-3.259-0.813-6.471-1.791-9.62-2.9  c-0.125-0.038-0.25-0.085-0.383-0.133c-0.931-0.336-1.86-0.679-2.782-1.039c-0.102-0.031-0.195-0.07-0.297-0.11  c-2.071-0.805-4.103-1.664-6.08-2.57c2.681-5.323,5.361-10.645,8.042-15.959c10.23,3.432,20.812,5.338,31.613,5.674  c0.04,0.008,0.079,0.008,0.117,0.008c0.07,0.007,0.149,0.007,0.227,0.007c0.078,0,0.156,0,0.227-0.007c0.039,0,0.078,0,0.118-0.008  c1.351-0.048,2.696-0.11,4.041-0.203c0.477-0.023,0.953-0.062,1.43-0.103c0.406-0.03,0.813-0.07,1.22-0.108  c0.453-0.04,0.914-0.087,1.367-0.133c0.688-0.07,1.375-0.149,2.056-0.235c1.813-0.218,3.618-0.491,5.416-0.804  c0.493-0.087,0.992-0.181,1.485-0.273c0.445-0.087,0.875-0.173,1.32-0.258c0.547-0.11,1.087-0.22,1.634-0.346  c0.656-0.14,1.312-0.288,1.961-0.444c1.274-0.297,2.54-0.625,3.807-0.969c0.75-0.211,1.508-0.422,2.251-0.648  c0.562-0.164,1.126-0.337,1.688-0.517c0.648-0.203,1.297-0.414,1.946-0.633c0.195,0.383,0.391,0.773,0.577,1.157  c2.493,4.931,4.971,9.862,7.456,14.802C87.706,88.003,85.394,88.949,83.041,89.816z"></path></svg>